<?xml version="1.0" encoding="utf-8"?>
<!-- Generator: Adobe Illustrator 16.0.0, SVG Export Plug-In . SVG Version: 6.00 Build 0)  -->
<!DOCTYPE svg PUBLIC "-//W3C//DTD SVG 1.1//EN" "http://www.w3.org/Graphics/SVG/1.1/DTD/svg11.dtd">
<svg version="1.1" id="图形" xmlns="http://www.w3.org/2000/svg" xmlns:xlink="http://www.w3.org/1999/xlink" x="0px" y="0px"
	 width="1024px" height="1024px" viewBox="0 0 1024 1024" enable-background="new 0 0 1024 1024" xml:space="preserve">
<path fill="#272636" d="M888.101,483.341H550.093V145.333c0-22.091-17.908-40-40-40c-22.091,0-40,17.909-40,40v338.008H132.085
	c-22.091,0-40,17.909-40,40c0,22.092,17.909,40,40,40h338.007v338.008c0,22.092,17.909,40,40,40c22.092,0,40-17.908,40-40V563.341
	h338.008c22.092,0,40-17.908,40-40C928.101,501.25,910.192,483.341,888.101,483.341z"/>
</svg>
