<?xml version="1.0" encoding="utf-8"?>
<!-- Generator: Adobe Illustrator 16.0.0, SVG Export Plug-In . SVG Version: 6.00 Build 0)  -->
<!DOCTYPE svg PUBLIC "-//W3C//DTD SVG 1.1//EN" "http://www.w3.org/Graphics/SVG/1.1/DTD/svg11.dtd">
<svg version="1.1" id="图形" xmlns="http://www.w3.org/2000/svg" xmlns:xlink="http://www.w3.org/1999/xlink" x="0px" y="0px"
	 width="1024px" height="1024px" viewBox="0 0 1024 1024" enable-background="new 0 0 1024 1024" xml:space="preserve">
<path fill="#272636" d="M954.995,892.281H931.5v-2.832v-59.244V372.961c0-44.183-35.817-80-80-80h-181V139.717
	c0-44.182-35.817-80-80-80h-418c-44.183,0-80,35.817-80,80v690.488v36v26.076H69.004c-16.57,0-30.004,13.405-30.004,29.937v12.128
	c0,16.535,13.433,29.938,30.004,29.938h885.99c16.57,0,30.005-13.404,30.005-29.938L985,922.218
	C985,905.683,971.566,892.281,954.995,892.281z M670.5,665.414c5.498-6.256,13.553-10.209,22.536-10.209h70
	c16.567,0,30,13.432,30,30v90c0,16.568-13.433,30-30,30h-70c-8.983,0-17.038-3.953-22.536-10.209V665.414z M693.036,430.205h70
	c16.567,0,30,13.432,30,30v90c0,16.568-13.433,30-30,30h-70c-8.983,0-17.038-3.953-22.536-10.209V440.414
	C675.998,434.158,684.053,430.205,693.036,430.205z M398.036,230.205c0-16.568,13.432-30,30-30h70c16.567,0,30,13.432,30,30v90
	c0,16.567-13.433,30-30,30h-70c-16.568,0-30-13.433-30-30V230.205z M398.036,456.205c0-16.568,13.432-30,30-30h70
	c16.567,0,30,13.432,30,30v90c0,16.568-13.433,30-30,30h-70c-16.568,0-30-13.432-30-30V456.205z M398.036,682.205
	c0-16.568,13.432-30,30-30h70c16.567,0,30,13.432,30,30v90c0,16.568-13.433,30-30,30h-70c-16.568,0-30-13.432-30-30V682.205z
	 M232.5,230.205c0-16.568,13.432-30,30-30h70c16.568,0,30,13.432,30,30v90c0,16.567-13.432,30-30,30h-70c-16.568,0-30-13.433-30-30
	V230.205z M232.5,456.205c0-16.568,13.432-30,30-30h70c16.568,0,30,13.432,30,30v90c0,16.568-13.432,30-30,30h-70
	c-16.568,0-30-13.432-30-30V456.205z M232.5,682.205c0-16.568,13.432-30,30-30h70c16.568,0,30,13.432,30,30v90
	c0,16.568-13.432,30-30,30h-70c-16.568,0-30-13.432-30-30V682.205z"/>
</svg>
