<?xml version="1.0" encoding="utf-8"?>
<!-- Generator: Adobe Illustrator 16.0.0, SVG Export Plug-In . SVG Version: 6.00 Build 0)  -->
<!DOCTYPE svg PUBLIC "-//W3C//DTD SVG 1.1//EN" "http://www.w3.org/Graphics/SVG/1.1/DTD/svg11.dtd">
<svg version="1.1" id="图形" xmlns="http://www.w3.org/2000/svg" xmlns:xlink="http://www.w3.org/1999/xlink" x="0px" y="0px"
	 width="1024px" height="1024px" viewBox="0 0 1024 1024" enable-background="new 0 0 1024 1024" xml:space="preserve">
<path fill="#272636" d="M530.002,162c-193.3,0-350,156.7-350,350s156.7,350,350,350c193.299,0,350-156.7,350-350
	S723.301,162,530.002,162z M725.206,664.777c11.716,11.716,11.716,30.71,0,42.426c-5.857,5.858-13.535,8.787-21.213,8.787
	s-15.355-2.929-21.213-8.787L530.002,554.426L377.224,707.203c-5.857,5.857-13.536,8.787-21.213,8.787
	c-7.679,0-15.354-2.929-21.213-8.787c-11.715-11.716-11.715-30.71,0-42.426L487.576,512L334.797,359.223
	c-11.715-11.716-11.715-30.711,0-42.427c11.716-11.716,30.71-11.716,42.426,0l152.778,152.778L682.78,316.796
	c11.716-11.715,30.71-11.715,42.426,0c11.716,11.716,11.716,30.711,0,42.427L572.428,512L725.206,664.777z"/>
</svg>
