<?xml version="1.0" encoding="utf-8"?>
<!-- Generator: Adobe Illustrator 16.0.0, SVG Export Plug-In . SVG Version: 6.00 Build 0)  -->
<!DOCTYPE svg PUBLIC "-//W3C//DTD SVG 1.1//EN" "http://www.w3.org/Graphics/SVG/1.1/DTD/svg11.dtd">
<svg version="1.1" id="图形" xmlns="http://www.w3.org/2000/svg" xmlns:xlink="http://www.w3.org/1999/xlink" x="0px" y="0px"
	 width="1024px" height="1024px" viewBox="0 0 1024 1024" enable-background="new 0 0 1024 1024" xml:space="preserve">
<rect x="87" y="87" display="none" fill="#2A2AB7" width="850.001" height="850"/>
<g>
	<path fill="#272636" d="M512,87C277.279,87,87,277.279,87,512.001c0,234.721,190.279,425,425,425s425-190.279,425-425
		C937.001,277.279,746.722,87,512,87z M783.748,783.156c-7.851,9.815-21.591,11.777-33.367,5.889L450.065,645.759
		c-5.888-1.964-11.777-7.853-13.74-13.741L296.963,335.628c-5.888-11.777-3.926-25.517,5.889-33.369
		c9.814-9.813,23.554-11.776,31.405-5.888l298.352,145.25c5.888,3.925,11.777,7.851,13.741,13.74l141.323,294.426
		c1.963,3.926,3.926,7.853,3.926,11.776C791.6,769.417,789.637,777.269,783.748,783.156z"/>
	<path fill="#272636" d="M557.624,493.749c-36.266,0-64,29.868-64,64c0,36.267,27.734,64,64,64c36.268,0,64.001-27.733,64.001-64
		C621.625,523.616,593.892,493.749,557.624,493.749z"/>
</g>
</svg>
