<?xml version="1.0" encoding="utf-8"?>
<!-- Generator: Adobe Illustrator 16.0.0, SVG Export Plug-In . SVG Version: 6.00 Build 0)  -->
<!DOCTYPE svg PUBLIC "-//W3C//DTD SVG 1.1//EN" "http://www.w3.org/Graphics/SVG/1.1/DTD/svg11.dtd">
<svg version="1.1" id="图形" xmlns="http://www.w3.org/2000/svg" xmlns:xlink="http://www.w3.org/1999/xlink" x="0px" y="0px"
	 width="1024px" height="1024px" viewBox="0 0 1024 1024" enable-background="new 0 0 1024 1024" xml:space="preserve">
<rect x="87" y="87" display="none" fill="#2A2AB7" width="850.001" height="850"/>
<g>
	<path fill="#272636" d="M901.593,345.565c-21.406-50.611-52.048-96.061-91.072-135.085s-84.474-69.667-135.085-91.073
		C623.026,97.24,567.366,86,510,86c-57.366,0-113.026,11.24-165.435,33.407c-50.611,21.407-96.061,52.048-135.085,91.073
		c-39.025,39.025-69.667,84.474-91.073,135.085C96.24,397.975,85,453.635,85,511.001c0,57.366,11.24,113.026,33.407,165.436
		c21.407,50.611,52.048,96.061,91.073,135.085c39.024,39.024,84.474,69.666,135.085,91.072
		c52.409,22.168,108.069,33.407,165.435,33.407c58.32,0,114.834-11.604,167.972-34.489c51.317-22.102,97.197-53.68,136.365-93.857
		c7.71-7.909,7.549-20.571-0.36-28.282c-7.256-7.073-18.5-7.502-26.264-1.423c2.838-4.958,3.887-10.669,3.887-16.385
		c0-3.925-1.963-7.852-3.926-11.776L646.351,455.362c-1.964-5.89-7.854-9.815-13.74-13.74l-298.353-145.25
		c-2.943-2.208-6.717-3.312-10.8-3.312c-6.805,0-14.472,3.066-20.606,9.2c-9.815,7.852-11.777,21.592-5.889,33.369l139.362,296.389
		c1.963,5.89,7.852,11.777,13.74,13.741l300.315,143.286c4.416,2.208,9.109,3.312,13.663,3.312c4.033,0,7.954-0.875,11.482-2.606
		c-33.188,31.661-71.254,56.882-113.377,75.023c-48.111,20.721-99.302,31.227-152.149,31.227
		c-51.983,0-102.401-10.177-149.853-30.247c-45.843-19.39-87.019-47.152-122.383-82.517s-63.127-76.54-82.517-122.383
		C135.177,613.402,125,562.984,125,511.001s10.177-102.401,30.247-149.854c19.39-45.843,47.153-87.019,82.517-122.383
		s76.54-63.127,122.383-82.517C407.599,136.177,458.017,126,510,126s102.401,10.177,149.854,30.247
		c45.843,19.39,87.019,47.153,122.383,82.517s63.127,76.54,82.517,122.383C884.823,408.599,895,459.018,895,511.001
		c0,25.702-2.547,51.393-7.569,76.358c-2.178,10.829,4.834,21.373,15.663,23.552c10.827,2.173,21.372-4.834,23.552-15.663
		c5.544-27.557,8.354-55.902,8.354-84.247C935,453.635,923.761,397.975,901.593,345.565z M769.607,769.013
		c-0.523,0.522-1.018,1.074-1.479,1.651c-0.897,1.124-2.271,1.693-4.085,1.693c-1.516,0-3.146-0.415-4.719-1.201
		c-0.11-0.056-0.221-0.108-0.332-0.162L458.677,627.708c-0.657-0.313-1.33-0.59-2.016-0.83c-0.464-0.283-1.17-0.989-1.454-1.453
		c-0.229-0.651-0.489-1.292-0.783-1.917l-139.361-296.39c-0.068-0.146-0.14-0.29-0.211-0.434c-1.446-2.894-1.909-6.884,0.494-8.807
		c0.576-0.461,1.126-0.954,1.648-1.475c2.488-2.488,5.001-3.256,6.251-3.336c0.724,0.478,1.478,0.908,2.258,1.288L622.63,459.008
		c1.913,1.284,4.162,2.835,5.159,3.803c0.164,0.408,0.341,0.811,0.531,1.206l141.322,294.427c0.047,0.098,0.095,0.192,0.143,0.29
		c0.583,1.165,1.415,2.828,1.797,3.791C771.494,764.849,771.05,767.571,769.607,769.013z"/>
	<path fill="#272636" d="M557.624,493.749c-36.266,0-64,29.867-64,64c0,36.267,27.734,64,64,64c36.268,0,64.001-27.733,64.001-64
		C621.625,523.616,593.892,493.749,557.624,493.749z"/>
</g>
</svg>
