<?xml version="1.0" encoding="utf-8"?>
<!-- Generator: Adobe Illustrator 16.0.0, SVG Export Plug-In . SVG Version: 6.00 Build 0)  -->
<!DOCTYPE svg PUBLIC "-//W3C//DTD SVG 1.1//EN" "http://www.w3.org/Graphics/SVG/1.1/DTD/svg11.dtd">
<svg version="1.1" id="图形" xmlns="http://www.w3.org/2000/svg" xmlns:xlink="http://www.w3.org/1999/xlink" x="0px" y="0px"
	 width="1024px" height="1024px" viewBox="0 0 1024 1024" enable-background="new 0 0 1024 1024" xml:space="preserve">
<g>
	<path fill="#272636" d="M336.181,667.422H281.11c-13.808,0-25-11.193-25-25s11.192-25,25-25h52.323
		c0.861-31.041,6.44-60.898,16.041-88.891H281.11c-13.808,0-25-11.193-25-25c0-13.808,11.192-25,25-25h90.849
		c19.456-34.43,45.505-64.639,76.452-88.892H281.109c-13.808,0-25-11.192-25-25s11.192-25,25-25h179.414c13.81,0,25,11.193,25,25
		c0,0.048-0.002,0.096-0.004,0.146c43.625-24.745,94.053-38.887,147.79-38.887c61.688,0,119.02,18.629,166.695,50.555V246.135
		c0.004-7.551-3.01-14.773-8.395-20.072l-121.6-119.829c-5.281-5.232-12.389-8.115-19.791-8.115H168.896
		c-15.584,0-28.202,12.604-28.202,28.187v686.057c0,7.619,3.096,14.973,8.627,20.271l85.252,85.238
		c10.914,10.531,28.219,10.531,39.147,0l86.957-86.896l90.236,87.01c10.932,10.529,28.22,10.529,39.148,0l19.442-18.748
		C417.636,857.562,350.515,770.928,336.181,667.422z M590.291,161.375c0-13.808,11.193-25,25-25c13.809,0,25,11.192,25,25v83.866
		h97.469c13.807,0,25,11.193,25,25c0,13.808-11.193,25-25,25H632.219c-23.117,0-41.928-18.808-41.928-41.926V161.375z"/>
	<path fill="#272636" d="M633.309,375.898c-138.086,0-250.002,111.932-250.002,250s111.916,250,250.002,250
		c138.102,0,249.998-111.932,249.998-250C883.307,487.829,771.396,375.898,633.309,375.898z M723.104,664.129
		c-27.408,28.299-50.541,50.969-68.758,67.373c-33.236,29.938-50.674,40.043-69.096,40.043c-16.959,0-31.967-9.408-49.283-23.535
		c-10.332-8.43-23.049-19.945-37.795-34.232c-24.425-23.66-46.211-46.922-47.127-47.9c-15.092-16.133-14.248-41.445,1.885-56.537
		c16.133-15.088,41.441-14.246,56.535,1.883c0.176,0.189,17.768,18.967,38.221,39.092c18.121,17.828,30.18,28.543,37.875,34.893
		c13.176-10.711,39.35-34.281,88.506-85.475c41.727-43.457,79.035-84.98,79.408-85.396c14.758-16.438,40.049-17.801,56.484-3.044
		c16.439,14.757,17.805,40.046,3.049,56.483C812.574,568.256,769.221,616.512,723.104,664.129z"/>
</g>
</svg>
