<?xml version="1.0" encoding="utf-8"?>
<!-- Generator: Adobe Illustrator 16.0.0, SVG Export Plug-In . SVG Version: 6.00 Build 0)  -->
<!DOCTYPE svg PUBLIC "-//W3C//DTD SVG 1.1//EN" "http://www.w3.org/Graphics/SVG/1.1/DTD/svg11.dtd">
<svg version="1.1" id="图形" xmlns="http://www.w3.org/2000/svg" xmlns:xlink="http://www.w3.org/1999/xlink" x="0px" y="0px"
	 width="1024px" height="1024px" viewBox="0 0 1024 1024" enable-background="new 0 0 1024 1024" xml:space="preserve">
<path fill="#272636" d="M837.263,242.094l-121.6-119.829c-5.282-5.233-12.389-8.115-19.79-8.115H214.549
	c-15.584,0-28.203,12.603-28.203,28.186v686.057c0,7.619,3.097,14.973,8.627,20.271l85.252,85.236
	c10.914,10.533,28.219,10.533,39.148,0l86.957-86.893l90.237,87.008c10.931,10.531,28.219,10.531,39.146,0l90.237-87.008
	l90.235,87.008c5.467,5.283,12.521,7.914,19.573,7.914s14.127-2.633,19.592-7.914l81.695-78.764
	c5.494-5.33,8.607-12.652,8.607-20.305V262.166C845.66,254.615,842.647,247.393,837.263,242.094z M326.762,355.671h179.414
	c13.808,0,25,11.193,25,25s-11.192,25-25,25H326.762c-13.807,0-25-11.193-25-25S312.955,355.671,326.762,355.671z M692.245,683.453
	H326.762c-13.807,0-25-11.193-25-25s11.193-25,25-25h365.483c13.807,0,25,11.193,25,25S706.052,683.453,692.245,683.453z
	 M692.245,544.562H326.762c-13.807,0-25-11.193-25-25c0-13.807,11.193-25,25-25h365.483c13.807,0,25,11.193,25,25
	C717.245,533.369,706.052,544.562,692.245,544.562z M783.411,311.273h-105.54c-23.118,0-41.926-18.808-41.926-41.926v-91.941
	c0-13.807,11.193-25,25-25s25,11.193,25,25v83.867h97.466c13.808,0,25,11.193,25,25S797.219,311.273,783.411,311.273z"/>
</svg>
