<?xml version="1.0" encoding="utf-8"?>
<!-- Generator: Adobe Illustrator 16.0.0, SVG Export Plug-In . SVG Version: 6.00 Build 0)  -->
<!DOCTYPE svg PUBLIC "-//W3C//DTD SVG 1.1//EN" "http://www.w3.org/Graphics/SVG/1.1/DTD/svg11.dtd">
<svg version="1.1" id="图形" xmlns="http://www.w3.org/2000/svg" xmlns:xlink="http://www.w3.org/1999/xlink" x="0px" y="0px"
	 width="1024px" height="1024px" viewBox="0 0 1024 1024" enable-background="new 0 0 1024 1024" xml:space="preserve">
<g>
	<path d="M814.004,383.264c-33.692-54.399-81.458-98.767-138.133-128.307c-14.692-7.659-32.812-1.956-40.47,12.737
		c-7.657,14.692-1.955,32.812,12.737,40.469c47.12,24.561,86.837,61.455,114.856,106.693C791.783,461.337,807,514.967,807,569.945
		c0,78.799-30.686,152.879-86.403,208.598C664.879,834.26,590.798,864.945,512,864.945c-78.797,0-152.878-30.686-208.597-86.402
		C247.686,722.824,217,648.744,217,569.945c0-54.98,15.217-108.61,44.006-155.091c28.02-45.24,67.737-82.133,114.859-106.693
		c14.692-7.658,20.396-25.776,12.738-40.469c-7.658-14.693-25.778-20.395-40.469-12.738
		c-56.676,29.54-104.443,73.907-138.136,128.307C175.326,439.24,157,503.794,157,569.945c0,47.912,9.39,94.406,27.91,138.191
		c17.881,42.277,43.474,80.24,76.067,112.832c32.593,32.594,70.555,58.186,112.832,76.066c43.786,18.52,90.28,27.91,138.191,27.91
		c47.911,0,94.405-9.391,138.191-27.91c42.276-17.881,80.238-43.473,112.831-76.066c32.593-32.592,58.186-70.555,76.067-112.83
		c18.52-43.787,27.91-90.281,27.91-138.193C867,503.795,848.674,439.242,814.004,383.264z"/>
	<path d="M512,499.054c22.092,0,40-17.909,40-40v-300c0-22.091-17.908-40-40-40c-22.091,0-40,17.909-40,40v300
		C472,481.146,489.909,499.054,512,499.054z"/>
</g>
</svg>
