<?xml version="1.0" encoding="utf-8"?>
<!-- Generator: Adobe Illustrator 16.0.0, SVG Export Plug-In . SVG Version: 6.00 Build 0)  -->
<!DOCTYPE svg PUBLIC "-//W3C//DTD SVG 1.1//EN" "http://www.w3.org/Graphics/SVG/1.1/DTD/svg11.dtd">
<svg version="1.1" id="图形" xmlns="http://www.w3.org/2000/svg" xmlns:xlink="http://www.w3.org/1999/xlink" x="0px" y="0px"
	 width="1024px" height="1024px" viewBox="0 0 1024 1024" enable-background="new 0 0 1024 1024" xml:space="preserve">
<g>
	<path fill="#272636" d="M639.436,205.931c35.18,0,63.719-28.542,63.719-63.761c0-35.177-28.539-63.718-63.719-63.718
		c-35.177,0-63.719,28.54-63.719,63.718C575.718,177.39,604.259,205.931,639.436,205.931z"/>
	<path fill="#272636" d="M469.522,163.453c35.177,0,63.718-28.541,63.718-63.761c0-35.177-28.541-63.718-63.718-63.718
		c-35.178,0-63.72,28.54-63.72,63.718C405.804,134.912,434.345,163.453,469.522,163.453z"/>
	<path fill="#272636" d="M363.325,142.17c0-58.616-47.54-106.197-106.197-106.197c-58.659,0-106.197,47.581-106.197,106.197
		c0,58.658,47.538,106.238,106.197,106.238C315.785,248.408,363.325,200.829,363.325,142.17z"/>
	<path fill="#272636" d="M618.197,308.408H405.804c-117.315,0-201.772,92.92-169.914,169.874
		c31.858,76.992,84.957,50.443,84.957,169.957c0,119.472-26.55,84.956-42.479,169.914
		c-15.931,84.915,50.442,169.873,169.915,169.873c119.469,0,244.254-66.331,297.351-169.873
		C798.734,714.611,830.59,520.76,830.59,520.76C830.59,403.487,735.512,308.408,618.197,308.408z"/>
	<path fill="#272636" d="M809.351,163.453c-35.179,0-63.719,28.499-63.719,63.718c0,35.177,28.54,63.718,63.719,63.718
		c35.178,0,63.719-28.54,63.719-63.718C873.067,191.952,844.527,163.453,809.351,163.453z"/>
</g>
</svg>
